<?xml version="1.0"?>
<svg xmlns="http://www.w3.org/2000/svg" xmlns:xlink="http://www.w3.org/1999/xlink" version="1.1" id="Capa_1" x="0px" y="0px" viewBox="0 0 512 512" style="enable-background:new 0 0 512 512;" xml:space="preserve" width="512px" height="512px" class=""><g><path style="fill:#107DAC" d="M67.794,25.471c-1.352,0-2.702,0.358-3.898,1.087L15.892,55.82c-2.23,1.359-3.591,3.782-3.591,6.395  c0,2.612,1.361,5.035,3.591,6.395l48.004,29.262c1.195,0.729,2.546,1.094,3.898,1.094C67.794,98.965,67.794,25.471,67.794,25.471z" data-original="#3C5156" class="" data-old_color="#107dac"/><path style="fill:#005073" d="M489.533,116.979H22.467C10.078,116.979,0,127.057,0,139.446v324.623  c0,12.389,10.078,22.467,22.467,22.467h467.067c12.389,0,22.467-10.078,22.467-22.467V139.446  C512,127.057,501.921,116.979,489.533,116.979z" data-original="#546F7A" class="" data-old_color="#546F7A"/><path style="fill:#005073" d="M489.533,454.15H22.467C10.078,454.15,0,444.072,0,431.683v32.386  c0,12.389,10.078,22.467,22.467,22.467h467.067c12.389,0,22.467-10.078,22.467-22.467v-32.386  C512,444.072,501.921,454.15,489.533,454.15z" data-original="#475D63" class="" data-old_color="#475D63"/><path style="fill:#71C7EC" d="M449.196,169.461H7.489c-4.136,0-7.489,3.353-7.489,7.489v249.614c0,4.136,3.353,7.489,7.489,7.489  h441.707c4.136,0,7.489-3.353,7.489-7.489V176.95C456.685,172.814,453.332,169.461,449.196,169.461z" data-original="#678993" class="" data-old_color="#71c7ec"/><path style="fill:#107DAC" d="M106.373,169.461H7.489c-4.136,0-7.489,3.353-7.489,7.489v249.614c0,4.136,3.353,7.489,7.489,7.489  h98.884c4.136,0,7.489-3.353,7.489-7.489V176.95C113.862,172.814,110.509,169.461,106.373,169.461z" data-original="#3C5156" class="" data-old_color="#107dac"/><path style="fill:#005073" d="M56.93,271.422c-16.726,0-30.335,13.608-30.335,30.335c0,16.727,13.608,30.335,30.335,30.335  s30.335-13.608,30.335-30.335C87.266,285.03,73.658,271.422,56.93,271.422z" data-original="#29373A" class="" data-old_color="#29373A"/><g>
	<path style="fill:#005073" d="M72.455,255.904H41.833c-4.136,0-7.489-3.353-7.489-7.489c0-4.136,3.353-7.489,7.489-7.489h30.624   c4.136,0,7.489,3.353,7.489,7.489C79.944,252.552,76.592,255.904,72.455,255.904z" data-original="#304144" class="active-path" data-old_color="#304144"/>
	<path style="fill:#005073" d="M72.455,227.711H41.833c-4.136,0-7.489-3.353-7.489-7.489s3.353-7.489,7.489-7.489h30.624   c4.136,0,7.489,3.353,7.489,7.489C79.944,224.358,76.592,227.711,72.455,227.711z" data-original="#304144" class="active-path" data-old_color="#304144"/>
	<path style="fill:#005073" d="M72.455,387.802H41.833c-4.136,0-7.489-3.353-7.489-7.489c0-4.136,3.353-7.489,7.489-7.489h30.624   c4.136,0,7.489,3.353,7.489,7.489C79.945,384.449,76.592,387.802,72.455,387.802z" data-original="#304144" class="active-path" data-old_color="#304144"/>
	<path style="fill:#005073" d="M72.455,359.609H41.833c-4.136,0-7.489-3.353-7.489-7.489s3.353-7.489,7.489-7.489h30.624   c4.136,0,7.489,3.353,7.489,7.489C79.944,356.256,76.592,359.609,72.455,359.609z" data-original="#304144" class="active-path" data-old_color="#304144"/>
</g><path style="fill:#107DAC" d="M480.762,31.347h-28.571c-4.136,0-7.489,3.353-7.489,7.489v46.756c0,4.136,3.353,7.489,7.489,7.489  h28.571c17.02,0,30.866-13.846,30.866-30.867C511.629,45.194,497.781,31.347,480.762,31.347z" data-original="#3C5156" class="" data-old_color="#107dac"/><path style="fill:#005073" d="M480.762,61.317h-28.571c-4.136,0-7.489-3.353-7.489-7.489v31.764c0,4.136,3.353,7.489,7.489,7.489  h28.571c17.02,0,30.866-13.846,30.866-30.867c0-5.804-1.614-11.239-4.411-15.882C501.811,55.303,491.977,61.317,480.762,61.317z" data-original="#304144" class="active-path" data-old_color="#304144"/><rect x="67.794" y="66.511" style="fill:#005073" width="384.399" height="24.963" data-original="#475D63" class="" data-old_color="#475D63"/><path style="fill:#005073" d="M33.073,45.348l-15.384,9.378H8.463c-4.136,0-7.489,3.353-7.489,7.489s3.353,7.489,7.489,7.489h9.225  l46.208,28.167c1.195,0.729,2.546,1.094,3.898,1.094V66.513L33.073,45.348z" data-original="#304144" class="active-path" data-old_color="#304144"/><path style="fill:#005073" d="M452.192,25.464H67.795l0,0v73.501l0,0h384.396c4.136,0,7.489-3.353,7.489-7.489V32.953  C459.681,28.817,456.328,25.464,452.192,25.464z" data-original="#546F7A" class="" data-old_color="#546F7A"/></g> </svg>
