<svg xmlns="http://www.w3.org/2000/svg" viewBox="0 0 73.7 52.1"><title>Asset 1</title><g id="Layer_2" data-name="Layer 2"><g id="Black"><polygon points="53.04 40.41 53.04 52.1 34.19 52.1 44.28 41.77 45.61 40.41 53.04 40.41"/><polygon points="43.19 8.9 43.19 40.42 31.51 52.1 17.8 52.1 17.8 40.41 31.5 40.41 31.5 20.6 11.7 20.6 11.7 52.1 11.24 52.1 0 40.86 0 8.9 43.19 8.9"/><polygon points="73.69 25.34 68.76 30.4 73.69 35.45 73.69 52.1 47.68 52.1 51.02 48.68 44.28 41.77 45.61 40.41 62.27 40.41 62.27 20.6 42.92 20.6 42.92 40.41 42.94 40.41 42.92 40.42 31.51 52.1 31.5 52.1 31.5 8.9 73.69 8.9 73.69 25.34"/><polygon points="73.69 8.9 73.69 25.34 68.76 30.4 62.27 37.04 60.68 38.67 60.67 38.67 52.6 30.4 52.6 30.4 60.68 22.13 62.17 20.6 73.6 8.9 73.69 8.9"/><polygon points="73.69 35.45 73.69 51.99 62.27 40.3 60.68 38.67 52.6 30.4 52.6 30.4 60.67 22.12 73.69 35.45"/><polygon points="43.19 0 43.19 40.55 31.51 52.1 31.5 52.1 31.5 5.64 43.19 0"/><rect x="13.8" y="40.4" width="17.71" height="11.7"/></g></g></svg>